<?xml version="1.0" encoding="utf-8"?>
<!-- Generator: Adobe Illustrator 16.0.0, SVG Export Plug-In . SVG Version: 6.00 Build 0)  -->
<!DOCTYPE svg PUBLIC "-//W3C//DTD SVG 1.0//EN" "http://www.w3.org/TR/2001/REC-SVG-20010904/DTD/svg10.dtd" [
	<!ENTITY ns_extend "http://ns.adobe.com/Extensibility/1.0/">
	<!ENTITY ns_ai "http://ns.adobe.com/AdobeIllustrator/10.0/">
	<!ENTITY ns_graphs "http://ns.adobe.com/Graphs/1.0/">
	<!ENTITY ns_vars "http://ns.adobe.com/Variables/1.0/">
	<!ENTITY ns_imrep "http://ns.adobe.com/ImageReplacement/1.0/">
	<!ENTITY ns_sfw "http://ns.adobe.com/SaveForWeb/1.0/">
	<!ENTITY ns_custom "http://ns.adobe.com/GenericCustomNamespace/1.0/">
	<!ENTITY ns_adobe_xpath "http://ns.adobe.com/XPath/1.0/">
]>
<svg version="1.0" xmlns:x="&ns_extend;" xmlns:i="&ns_ai;" xmlns:graph="&ns_graphs;"
	 xmlns="http://www.w3.org/2000/svg" xmlns:xlink="http://www.w3.org/1999/xlink" x="0px" y="0px" width="19px" height="19px"
	 viewBox="0 0 19 19" enable-background="new 0 0 19 19" xml:space="preserve">
<metadata>
	<sfw  xmlns="&ns_sfw;">
		<slices></slices>
		<sliceSourceBounds  height="22.013" width="16.001" y="-294.013" x="272" bottomLeftOrigin="true"></sliceSourceBounds>
		<optimizationSettings>
			<targetSettings  fileFormat="PNG24Format" targetSettingsID="0">
				<PNG24Format  transparency="true" matteColor="#FFFFFF" filtered="false" interlaced="false" noMatteColor="false">
					</PNG24Format>
			</targetSettings>
		</optimizationSettings>
	</sfw>
</metadata>
<g id="pinterest">
	<path fill-rule="evenodd" clip-rule="evenodd" d="M7.266,17.186c-0.041-0.15,0.117-0.248,0.186-0.371
		c0.531-0.951,0.83-2.287,1.117-3.512c0.102-0.043,0.189,0.159,0.295,0.267c0.313,0.316,0.846,0.61,1.462,0.665
		c1.668,0.145,2.804-0.77,3.458-1.702c0.693-0.988,1.184-2.292,1.064-4.071c-0.096-1.426-0.855-2.511-1.783-3.218
		c-0.994-0.758-2.336-1.154-3.936-1.011C7.649,4.367,6.555,4.908,5.643,5.75c-1.174,1.084-2.16,3.51-1.09,5.426
		c0.123,0.219,0.315,0.452,0.559,0.664c0.147,0.129,0.52,0.475,0.797,0.426c0.25-0.043,0.421-0.814,0.4-1.038
		c-0.029-0.29-0.393-0.563-0.506-0.85c-0.169-0.43-0.201-0.73-0.16-1.304C5.74,7.721,6.574,6.547,7.639,5.988
		c1.046-0.549,2.768-0.727,4.043,0.106c1.327,0.868,1.51,2.832,0.932,4.602c-0.277,0.848-0.683,1.616-1.41,1.994
		c-0.794,0.413-1.904,0.058-2.102-0.69c-0.144-0.545,0.145-1.232,0.318-1.783c0.289-0.907,0.773-2.389-0.186-2.819
		C8.521,7.08,7.795,7.615,7.532,8.063c-0.294,0.499-0.38,1.201-0.267,1.889c0.04,0.238,0.207,0.48,0.213,0.718
		c0.004,0.159-0.107,0.442-0.16,0.665C7.177,11.941,6.98,12.661,6.84,13.25c-0.277,1.176-0.574,2.138-0.531,3.537
		c-0.167,0.028-0.32-0.092-0.453-0.159c-1.055-0.545-2.033-1.345-2.74-2.288c-0.801-1.07-1.492-2.469-1.596-4.123
		C1.355,7.554,2.228,5.674,3.489,4.233c1.423-1.627,3.528-2.911,6.73-2.713c2.273,0.141,4.141,1.356,5.294,2.687
		c1.272,1.468,2.127,3.459,1.969,6.01c-0.129,2.082-1.142,3.775-2.315,4.948c-1.17,1.171-2.825,2.183-4.947,2.313
		C9.098,17.548,8.196,17.452,7.266,17.186z"/>
</g>
<g id="credit">
	<g>
		<g>
			<g>
				<g>
					<path d="M6.195,22.038v-1.509h0.633h0.058c0.17,0,0.286,0.034,0.348,0.099c0.062,0.065,0.093,0.188,0.093,0.368
						c0,0.173-0.032,0.29-0.097,0.353c-0.064,0.063-0.185,0.094-0.362,0.094L6.8,21.443H6.365v0.595H6.195z M6.365,21.3h0.404
						c0.168,0,0.277-0.017,0.324-0.052s0.071-0.114,0.071-0.238c0-0.146-0.017-0.239-0.047-0.277
						c-0.033-0.039-0.108-0.058-0.229-0.058l-0.065-0.002H6.365V21.3z"/>
					<path d="M7.701,20.529v1.509H7.53v-1.509H7.701z"/>
					<path d="M9.136,20.529l-0.482,0.729l0.519,0.78H8.971L8.623,21.51l-0.056-0.083c-0.003-0.004-0.011-0.018-0.025-0.04
						l-0.026-0.042H8.511l-0.026,0.043c-0.016,0.021-0.024,0.035-0.027,0.042l-0.058,0.083l-0.354,0.525H7.836l0.54-0.78
						l-0.496-0.729h0.205l0.335,0.504l0.045,0.07c0.006,0.009,0.014,0.021,0.023,0.035l0.022,0.036h0.005l0.021-0.035
						c0.012-0.02,0.019-0.031,0.021-0.035l0.046-0.07l0.331-0.505H9.136z"/>
					<g>
						<path d="M10.863,21.246c-0.071-0.056-0.227-0.087-0.473-0.099c-0.261-0.012-0.323-0.036-0.339-0.047
							c-0.011-0.007-0.042-0.039-0.042-0.187c0-0.063,0.011-0.144,0.058-0.172c0.03-0.019,0.11-0.042,0.321-0.042
							c0.184,0,0.242,0.025,0.26,0.04c0.018,0.014,0.047,0.058,0.047,0.198v0.042h0.252v-0.042c0-0.191-0.039-0.315-0.118-0.378
							c-0.077-0.06-0.229-0.089-0.467-0.089c-0.235,0-0.39,0.03-0.473,0.096c-0.086,0.066-0.126,0.189-0.126,0.377
							c0,0.269,0.145,0.421,0.422,0.44l0.346,0.018c0.112,0.007,0.151,0.029,0.164,0.042c0.012,0.013,0.033,0.049,0.033,0.154
							c0,0.173-0.035,0.217-0.051,0.228c-0.02,0.016-0.092,0.041-0.336,0.041c-0.215,0-0.274-0.028-0.289-0.04
							c-0.016-0.012-0.046-0.054-0.046-0.218v-0.081H9.752l0.001,0.111c0,0.182,0.041,0.301,0.125,0.366
							c0.08,0.061,0.229,0.09,0.459,0.09c0.262,0,0.429-0.029,0.512-0.089c0.084-0.064,0.127-0.193,0.127-0.396
							C10.977,21.424,10.938,21.305,10.863,21.246z"/>
						<polygon points="11.033,22.081 12.09,22.081 12.09,21.852 11.289,21.852 11.289,21.373 12.055,21.373 12.055,21.145 
							11.289,21.145 11.289,20.716 12.09,20.716 12.09,20.486 11.033,20.486 						"/>
						<path d="M13.213,21.624c0,0.107-0.02,0.18-0.055,0.202c-0.023,0.016-0.102,0.041-0.354,0.041c-0.25,0-0.314-0.054-0.33-0.086
							c-0.023-0.046-0.051-0.209-0.051-0.726c0-0.222,0.041-0.285,0.063-0.303c0.027-0.02,0.117-0.053,0.422-0.053
							c0.168,0,0.221,0.026,0.238,0.042c0.016,0.015,0.045,0.06,0.045,0.203l0.002,0.088h0.254l-0.002-0.084
							c0-0.185-0.037-0.309-0.113-0.377c-0.076-0.067-0.213-0.101-0.418-0.101c-0.295,0-0.484,0.033-0.578,0.101
							c-0.082,0.06-0.131,0.128-0.148,0.206c-0.018,0.071-0.025,0.236-0.025,0.503c0,0.348,0.037,0.563,0.111,0.663
							c0.078,0.103,0.246,0.151,0.516,0.151c0.299,0,0.475-0.026,0.553-0.085c0.084-0.06,0.123-0.197,0.123-0.419v-0.101h-0.256
							L13.213,21.624z"/>
						<polygon points="14.67,20.486 13.436,20.486 13.436,20.73 13.928,20.73 13.928,22.081 14.184,22.081 14.184,20.73 
							14.67,20.73 						"/>
						<path d="M15.332,20.472c-0.26,0-0.436,0.039-0.533,0.119c-0.1,0.082-0.152,0.231-0.152,0.443l-0.002,0.249
							c0,0.361,0.037,0.581,0.115,0.673c0.078,0.094,0.266,0.14,0.572,0.14s0.492-0.047,0.57-0.141
							c0.076-0.093,0.113-0.319,0.113-0.691c0-0.347-0.039-0.561-0.117-0.652C15.816,20.518,15.633,20.472,15.332,20.472z
							 M15.33,20.7c0.244,0,0.336,0.031,0.369,0.059c0.029,0.024,0.068,0.094,0.068,0.283v0.241c0,0.408-0.037,0.501-0.051,0.521
							c-0.016,0.019-0.082,0.063-0.387,0.063s-0.371-0.044-0.385-0.063c-0.018-0.02-0.053-0.111-0.053-0.521
							c0-0.408,0.035-0.499,0.053-0.521C14.959,20.745,15.025,20.7,15.33,20.7z"/>
						<path d="M17.213,21.357c0.041-0.021,0.072-0.049,0.096-0.083c0.041-0.063,0.061-0.166,0.061-0.314
							c0-0.17-0.037-0.292-0.111-0.365c-0.076-0.072-0.197-0.108-0.371-0.108h-0.762v1.595h0.256V21.47h0.527
							c0.086,0,0.186,0.025,0.186,0.222v0.39h0.256v-0.429C17.35,21.488,17.289,21.401,17.213,21.357z M17.123,21.001
							c0,0.096-0.02,0.16-0.057,0.19c-0.025,0.022-0.09,0.049-0.236,0.049h-0.449v-0.524h0.506c0.133,0,0.178,0.029,0.193,0.047
							C17.096,20.782,17.123,20.838,17.123,21.001z"/>
					</g>
				</g>
				<g>
					<polygon fill="#FFFFFF" points="4.416,21.617 3.46,22.573 2.817,21.929 2.613,22.136 3.46,22.983 4.78,21.663 4.574,21.457 
											"/>
					<polygon fill="#FFFFFF" points="3.46,20.753 3.892,21.184 3.546,21.532 3.217,21.204 3.013,21.409 3.017,21.412 3.017,21.411 
						3.017,21.412 3.547,21.942 4.153,21.331 4.302,21.183 3.456,20.339 2.142,21.663 2.347,21.868 2.392,21.823 2.438,21.777 
						2.461,21.754 2.506,21.709 2.552,21.664 2.551,21.663 					"/>
					<path fill="#24B1FF" d="M5.35,20.969c-0.356-0.975-1.454-1.468-2.45-1.103c-0.996,0.365-1.514,1.45-1.157,2.424
						c0.357,0.975,1.454,1.467,2.45,1.104C5.189,23.028,5.707,21.942,5.35,20.969z M2.506,21.709l-0.045,0.045l-0.023,0.023
						l-0.046,0.046l-0.045,0.045l-0.205-0.205l1.314-1.324l0.847,0.844l-0.149,0.148l-0.606,0.611l-0.53-0.53l0-0.001l0,0.001
						l-0.003-0.003l0.204-0.205l0.329,0.328l0.346-0.349L3.46,20.753l-0.91,0.91l0.001,0.001L2.506,21.709z M3.46,22.983
						l-0.848-0.848l0.204-0.207l0.644,0.645l0.956-0.956l0.158-0.16l0.206,0.206L3.46,22.983z"/>
				</g>
				<g>
					<path d="M14.002,23.099v0.168h-0.141v-0.168H14.002z"/>
					<path d="M14.822,22.952h0.127l0.002,0.049c0,0.186-0.123,0.277-0.365,0.277c-0.156,0-0.258-0.029-0.311-0.088
						c-0.049-0.059-0.074-0.18-0.074-0.363c0-0.172,0.025-0.287,0.076-0.35c0.051-0.061,0.148-0.092,0.293-0.092
						c0.139,0,0.236,0.021,0.287,0.063s0.078,0.119,0.078,0.234h-0.127v-0.023c0-0.066-0.018-0.111-0.051-0.135
						c-0.033-0.021-0.1-0.033-0.199-0.033c-0.096,0-0.156,0.021-0.184,0.064c-0.027,0.041-0.041,0.137-0.041,0.283
						c0,0.145,0.016,0.236,0.049,0.275c0.029,0.039,0.102,0.059,0.217,0.059c0.096,0,0.156-0.012,0.184-0.039
						C14.809,23.11,14.822,23.048,14.822,22.952z"/>
					<path d="M15.486,22.386c0.158,0,0.264,0.027,0.313,0.084c0.045,0.057,0.068,0.176,0.068,0.361c0,0.188-0.023,0.309-0.068,0.365
						c-0.049,0.055-0.154,0.082-0.313,0.082c-0.16,0-0.264-0.027-0.311-0.082c-0.049-0.057-0.072-0.178-0.072-0.365
						c0-0.186,0.023-0.305,0.072-0.361C15.223,22.413,15.326,22.386,15.486,22.386z M15.486,22.491c-0.115,0-0.184,0.02-0.209,0.055
						c-0.027,0.037-0.041,0.133-0.041,0.285c0,0.156,0.014,0.252,0.041,0.287c0.025,0.037,0.094,0.055,0.209,0.055
						c0.111,0,0.182-0.018,0.211-0.055c0.023-0.035,0.039-0.131,0.039-0.287c0-0.152-0.016-0.248-0.039-0.285
						C15.668,22.511,15.598,22.491,15.486,22.491z"/>
					<path d="M16.066,22.399h0.129l-0.004,0.131l0.004,0.002c0.047-0.098,0.143-0.146,0.281-0.146c0.146,0,0.236,0.049,0.268,0.146
						h0.004c0.053-0.098,0.154-0.146,0.299-0.146c0.205,0,0.307,0.104,0.307,0.313v0.568h-0.127v-0.58
						c0-0.074-0.014-0.127-0.041-0.154s-0.08-0.041-0.154-0.041c-0.1,0-0.168,0.02-0.203,0.057
						c-0.037,0.039-0.055,0.109-0.055,0.217v0.502h-0.127v-0.568l-0.002-0.039c0-0.111-0.063-0.168-0.191-0.168
						c-0.174,0-0.258,0.096-0.258,0.281v0.494h-0.129V22.399z"/>
				</g>
			</g>
		</g>
	</g>
</g>
</svg>
